<svg width="393" height="131" viewBox="0 0 393 131" fill="none" xmlns="http://www.w3.org/2000/svg">
<rect x="1.5" y="1.5" width="390" height="128" stroke="#C46F6E" stroke-width="3"/>
<path d="M69.48 78H46.03V45.17H51.39V73.31H64.12V68.62H69.48V78ZM98.3031 78H79.5431C78.2478 78 77.1311 77.5533 76.1931 76.66C75.2998 75.722 74.8531 74.6053 74.8531 73.31V59.24C74.8531 57.9447 75.2998 56.8503 76.1931 55.957C77.1311 55.019 78.2478 54.55 79.5431 54.55H93.6131C94.9084 54.55 96.0028 55.019 96.8961 55.957C97.8341 56.8503 98.3031 57.9447 98.3031 59.24V63.93L93.6131 68.62H80.2131L84.2331 64.6H93.6131V58.57H79.5431V73.98H98.3031V78ZM128.115 78H123.425V74.583L119.405 78H109.355C108.06 78 106.943 77.5533 106.005 76.66C105.112 75.722 104.665 74.6053 104.665 73.31V68.62C104.665 67.3247 105.112 66.2303 106.005 65.337C106.943 64.399 108.06 63.93 109.355 63.93H122.755L118.735 67.883H109.355V73.98H123.425V58.57H104.665L108.685 54.55H123.425C124.721 54.55 125.815 55.019 126.708 55.957C127.646 56.8503 128.115 57.9447 128.115 59.24V78ZM156.229 63.93H151.539V58.57H142.159V78H137.469V54.55H142.159V57.9L145.509 54.55H151.539C152.835 54.55 153.929 55.019 154.822 55.957C155.76 56.8503 156.229 57.9447 156.229 59.24V63.93ZM187.026 78H182.336V58.57H168.266V78H163.576V54.55H168.266V57.9L171.616 54.55H182.336C183.631 54.55 184.725 55.019 185.619 55.957C186.557 56.8503 187.026 57.9447 187.026 59.24V78ZM249.365 78H244.675V58.57H231.945V78H227.255V58.57H214.525V78H209.835V54.55H214.525V57.9L217.875 54.55H227.255C229.979 54.55 231.52 55.689 231.878 57.967L235.295 54.55H244.675C245.97 54.55 247.064 55.019 247.958 55.957C248.896 56.8503 249.365 57.9447 249.365 59.24V78ZM282.226 73.31C282.226 74.6053 281.757 75.722 280.819 76.66C279.926 77.5533 278.831 78 277.536 78H263.466C262.171 78 261.054 77.5533 260.116 76.66C259.223 75.722 258.776 74.6053 258.776 73.31V59.24C258.776 57.9447 259.223 56.8503 260.116 55.957C261.054 55.019 262.171 54.55 263.466 54.55H277.536C278.831 54.55 279.926 55.019 280.819 55.957C281.757 56.8503 282.226 57.9447 282.226 59.24V73.31ZM277.536 73.98V58.57H263.466V73.98H277.536ZM310.382 63.93H305.692V58.57H296.312V78H291.622V54.55H296.312V57.9L299.662 54.55H305.692C306.987 54.55 308.081 55.019 308.975 55.957C309.913 56.8503 310.382 57.9447 310.382 59.24V63.93ZM341.178 78H322.418C321.123 78 320.006 77.5533 319.068 76.66C318.175 75.722 317.728 74.6053 317.728 73.31V59.24C317.728 57.9447 318.175 56.8503 319.068 55.957C320.006 55.019 321.123 54.55 322.418 54.55H336.488C337.783 54.55 338.878 55.019 339.771 55.957C340.709 56.8503 341.178 57.9447 341.178 59.24V63.93L336.488 68.62H323.088L327.108 64.6H336.488V58.57H322.418V73.98H341.178V78Z" fill="black"/>
</svg>
