<svg id="Capa_1" enable-background="new 0 0 512 512" height="512" viewBox="0 0 512 512" width="512" xmlns="http://www.w3.org/2000/svg" xmlns:xlink="http://www.w3.org/1999/xlink"><radialGradient id="SVGID_1_" cx="190.515" cy="419.413" gradientUnits="userSpaceOnUse" r="136.924"><stop offset="0" stop-color="#fff"/><stop offset=".4303" stop-color="#effbff"/><stop offset="1" stop-color="#b7efff"/></radialGradient><linearGradient id="lg1"><stop offset="0" stop-color="#eaf9fa"/><stop offset=".4991" stop-color="#d6f6fd"/><stop offset=".9399" stop-color="#68e7fd"/></linearGradient><radialGradient id="SVGID_2_" cx="311.346" cy="450.694" gradientUnits="userSpaceOnUse" r="143.059" xlink:href="#lg1"/><radialGradient id="SVGID_3_" cx="264.297" cy="359.206" gradientUnits="userSpaceOnUse" r="63.234"><stop offset="0" stop-color="#fff9e2"/><stop offset=".5145" stop-color="#fffacd"/><stop offset=".9755" stop-color="#fff6ab"/></radialGradient><radialGradient id="SVGID_4_" cx="121.723" cy="261.899" gradientTransform="matrix(1 0 0 .604 0 103.595)" gradientUnits="userSpaceOnUse" r="65.797"><stop offset="0" stop-color="#c4f19b"/><stop offset=".518" stop-color="#a4ed62"/><stop offset=".7855" stop-color="#85e026"/><stop offset=".9755" stop-color="#72d800"/></radialGradient><radialGradient id="SVGID_5_" cx="67.782" cy="204.275" gradientUnits="userSpaceOnUse" r="85.91"><stop offset="0" stop-color="#e0f6df"/><stop offset=".5145" stop-color="#ddf7c5"/><stop offset=".5599" stop-color="#daf7c0"/><stop offset=".9755" stop-color="#c4f19b"/></radialGradient><radialGradient id="SVGID_6_" cx="170.211" cy="6.097" gradientUnits="userSpaceOnUse" r="143.719"><stop offset="0" stop-color="#ffd6d6"/><stop offset=".5354" stop-color="#ffb3bd"/><stop offset=".56" stop-color="#ffb1bb"/><stop offset=".9729" stop-color="#ff8b99"/></radialGradient><radialGradient id="SVGID_7_" cx="274.299" cy="11.519" gradientUnits="userSpaceOnUse" r="160.963"><stop offset="0" stop-color="#eb2a42"/><stop offset=".558" stop-color="#b01f35"/><stop offset=".8831" stop-color="#a6164e"/><stop offset="1" stop-color="#a21259"/></radialGradient><radialGradient id="SVGID_8_" cx="274.895" cy="30.521" gradientTransform="matrix(0 1 -1 0 464.465 -80.465)" gradientUnits="userSpaceOnUse" r="143.767"><stop offset="0" stop-color="#00abf4"/><stop offset=".5038" stop-color="#0091d2"/><stop offset=".5721" stop-color="#008dd9"/><stop offset=".9826" stop-color="#0073ff"/></radialGradient><radialGradient id="SVGID_9_" cx="272.14" cy="33.901" gradientTransform="matrix(-1 0 0 -1 544.93 384)" gradientUnits="userSpaceOnUse" r="127.475"><stop offset="0" stop-color="#feda00"/><stop offset=".5119" stop-color="#dabb00"/><stop offset=".5138" stop-color="#dabb00"/><stop offset=".9893" stop-color="#eca026"/></radialGradient><radialGradient id="SVGID_10_" cx="290.015" cy="47.705" gradientTransform="matrix(0 -1 1 0 80.465 464.465)" gradientUnits="userSpaceOnUse" r="145.669"><stop offset="0" stop-color="#68c800"/><stop offset=".5119" stop-color="#5bab00"/><stop offset=".7704" stop-color="#268423"/><stop offset=".9755" stop-color="#00683c"/></radialGradient><radialGradient id="SVGID_11_" cx="248.81" cy="151.404" gradientUnits="userSpaceOnUse" r="93.041"><stop offset="0" stop-color="#ff546a"/><stop offset=".5038" stop-color="#ff3650"/><stop offset=".6571" stop-color="#e92b5a"/><stop offset=".9424" stop-color="#c3186c"/></radialGradient><radialGradient id="SVGID_12_" cx="275.887" cy="183.86" gradientTransform="matrix(0 1 -1 0 499.2 -115.2)" gradientUnits="userSpaceOnUse" r="93.041"><stop offset="0" stop-color="#00d1fd"/><stop offset=".5038" stop-color="#00c1fc"/><stop offset=".9755" stop-color="#0094ff"/></radialGradient><radialGradient id="SVGID_13_" cx="308.343" cy="156.782" gradientTransform="matrix(-1 0 0 -1 614.4 384)" gradientUnits="userSpaceOnUse" r="93.041"><stop offset="0" stop-color="#fff044"/><stop offset=".5119" stop-color="#ffea00"/><stop offset=".6858" stop-color="#fbd113"/><stop offset=".9755" stop-color="#f6ab31"/></radialGradient><radialGradient id="SVGID_14_" cx="281.265" cy="124.326" gradientTransform="matrix(0 -1 1 0 115.2 499.2)" gradientUnits="userSpaceOnUse" r="93.041"><stop offset="0" stop-color="#7be700"/><stop offset=".5119" stop-color="#72d800"/><stop offset=".8085" stop-color="#26b847"/><stop offset=".9755" stop-color="#00a96a"/></radialGradient><radialGradient id="SVGID_15_" cx="293.049" cy="180.038" gradientUnits="userSpaceOnUse" r="32.506" xlink:href="#lg1"/><radialGradient id="SVGID_16_" cx="391.513" cy="1460.712" gradientTransform="matrix(.931 0 0 .114 -111.186 320.147)" gradientUnits="userSpaceOnUse" r="211.111"><stop offset="0" stop-color="#b7efff"/><stop offset=".2738" stop-color="#d8f6ff"/><stop offset=".4962" stop-color="#effbff"/><stop offset=".888" stop-color="#fff"/></radialGradient><g><path d="m222.568 486.4h-25.6v-309.889h25.6l12.8 153.6z" fill="url(#SVGID_1_)"/><path d="m222.568 176.511h25.6v309.889h-25.6z" fill="url(#SVGID_2_)"/><path d="m235.368 378.622v-178.972l76.822-22.548-34.757 201.52z" fill="url(#SVGID_3_)"/><path d="m158.568 266.111-59.665 12.8.677 1.13c4.334 7.239 12.151 11.67 20.589 11.67h42.867c-1.866 0 1.725-17.804-4.468-25.6z" fill="url(#SVGID_4_)"/><path d="m88.122 189.311h-42.866l53.647 89.6h51.373c-21.82-27.469-62.154-89.6-62.154-89.6z" fill="url(#SVGID_5_)"/><path d="m235.368 0-90.73 54.324c-7.009 4.197-11.385 11.659-11.656 19.787h.317l-.331 115.2h41.734l102.731-189.311z" fill="url(#SVGID_6_)"/><path d="m175.033 74.913c0 7.553 3.556 36.197 9.599 40.729l92.801 76.358v-192l-90.73 54.324c-7.239 4.334-11.67 12.152-11.67 20.589z" fill="url(#SVGID_7_)"/><path d="m391.832 86.911c-7.553 0-36.197 3.556-40.729 9.599l-63.331 92.801h178.972l-54.324-90.73c-4.334-7.239-12.151-11.67-20.588-11.67z" fill="url(#SVGID_8_)"/><path d="m379.833 303.709c0-7.553-3.556-36.197-9.599-40.729l-92.801-63.331v178.972l90.73-54.324c7.239-4.333 11.67-12.15 11.67-20.588z" fill="url(#SVGID_9_)"/><path d="m163.035 291.711c7.553 0 36.197-3.556 40.729-9.599l63.331-92.801h-178.973l54.324 90.73c4.335 7.239 12.152 11.67 20.589 11.67z" fill="url(#SVGID_10_)"/><path d="m185.273 94.591c-6.446-4.835-10.24-12.422-10.24-20.48l-.331 115.2h102.731v-10.339c0-9.607-4.523-18.654-12.209-24.418z" fill="url(#SVGID_11_)"/><path d="m392.633 86.911-115.2-.331v102.731h10.339c9.607 0 18.654-4.523 24.418-12.209l59.963-79.951c4.835-6.446 12.423-10.24 20.48-10.24z" fill="url(#SVGID_12_)"/><path d="m379.833 304.511.331-115.2h-102.731v10.339c0 9.607 4.523 18.654 12.209 24.418l79.951 59.963c6.447 4.835 10.24 12.422 10.24 20.48z" fill="url(#SVGID_13_)"/><path d="m162.233 291.711 115.2.331v-102.731h-10.339c-9.607 0-18.654 4.523-24.418 12.209l-59.963 79.951c-4.834 6.446-12.422 10.24-20.48 10.24z" fill="url(#SVGID_14_)"/><circle cx="277.433" cy="189.311" fill="url(#SVGID_15_)" r="12.8"/><path d="m256 512c113.107 0 204.798-11.462 204.798-25.6h-409.596c0 14.138 91.691 25.6 204.798 25.6z" fill="url(#SVGID_16_)"/></g></svg>