<svg id="Capa_1" enable-background="new 0 0 512 512" height="512" viewBox="0 0 512 512" width="512" xmlns="http://www.w3.org/2000/svg" xmlns:xlink="http://www.w3.org/1999/xlink"><linearGradient id="SVGID_1_" gradientUnits="userSpaceOnUse" x1="106.761" x2="418.718" y1="374.741" y2="374.741"><stop offset="0" stop-color="#43386b"/><stop offset=".3965" stop-color="#594a8e"/><stop offset="1" stop-color="#a996eb"/></linearGradient><linearGradient id="SVGID_2_" gradientUnits="userSpaceOnUse" x1="149.101" x2="393.776" y1="213.883" y2="213.883"><stop offset="0" stop-color="#a996eb"/><stop offset=".3965" stop-color="#d7d1eb"/><stop offset="1" stop-color="#e9e5f6"/></linearGradient><linearGradient id="SVGID_3_" gradientTransform="matrix(.866 -.5 0 1.155 -45.839 -1.001)" gradientUnits="userSpaceOnUse" x1="326.315" x2="453.672" y1="205.414" y2="205.414"><stop offset="0" stop-color="#ab2c37"/><stop offset="1" stop-color="#ff4757"/></linearGradient><linearGradient id="SVGID_4_" gradientUnits="userSpaceOnUse" x1="244.227" x2="253.199" y1="71.501" y2="71.501"><stop offset="0" stop-color="#cc8241"/><stop offset="1" stop-color="#dea861"/></linearGradient><g><path d="m476.334 364.63-97.997-127.149h-244.674l-97.998 127.149c-10.376 13.463-6.464 32.991 8.299 41.418l162.684 92.859c30.585 17.458 68.118 17.458 98.703 0l162.684-92.859c14.763-8.427 18.676-27.955 8.299-41.418z" fill="url(#SVGID_1_)"/><path d="m205.711 144.001-72.048 93.481 7.298 25.922c4.728 16.793 24.009 24.638 39.118 15.914 12.055-6.96 27.434-3.51 35.36 7.934 19.622 28.33 61.503 28.33 81.124 0 7.926-11.443 23.304-14.894 35.36-7.934h.001c15.109 8.723 34.39.879 39.117-15.914l7.298-25.922-72.048-93.481c-25.418-32.978-75.163-32.978-100.58 0z" fill="url(#SVGID_2_)"/><g><path d="m255.213 12.66v49.713 49.713l108.033-112.086z" fill="url(#SVGID_3_)"/><path d="m263.809 126.318c0-.026.001-.053 0-.079v-115.269l-17.192 1.577v115.242h.001c.004 1.136.692 2.221 2.096 3.032 3.109 1.795 8.539 1.57 12.128-.503 1.96-1.132 2.963-2.58 2.967-3.953z" fill="url(#SVGID_4_)"/><path d="m260.842 14.991c3.59-2.072 3.979-5.208.871-7.002s-8.539-1.57-12.128.503c-3.59 2.072-3.979 5.207-.871 7.002s8.538 1.57 12.128-.503z" fill="#ebcba0"/></g></g></svg>