<svg width="80" height="80" viewBox="0 0 80 80" fill="none" xmlns="http://www.w3.org/2000/svg">
<path d="M40 0C17.9094 0 0 17.9085 0 40C0 62.0915 17.9094 80 40 80C62.0906 80 80 62.0915 80 40C80 17.9085 62.0906 0 40 0ZM60.2901 44.3261C62.1545 46.1471 64.1269 47.8609 65.8005 49.8701C66.542 50.7589 67.2409 51.678 67.7729 52.7116C68.5324 54.1856 67.8465 55.8019 66.5273 55.8895L58.3325 55.8879C56.2161 56.063 54.5318 55.2094 53.1118 53.7625C51.9783 52.6093 50.9266 51.3776 49.8349 50.1852C49.3888 49.6958 48.9191 49.235 48.3593 48.8724C47.2421 48.1457 46.2715 48.3683 45.6315 49.5353C44.9792 50.7229 44.8303 52.0389 44.7681 53.3606C44.6789 55.2929 44.0962 55.7979 42.1573 55.8887C38.0145 56.0827 34.0837 55.4541 30.4303 53.3655C27.2074 51.5233 24.7128 48.9232 22.5391 45.9793C18.3063 40.2406 15.0646 33.9421 12.1518 27.4627C11.4963 26.0035 11.9759 25.2227 13.5857 25.1924C16.2603 25.1409 18.9348 25.1474 21.6094 25.19C22.6979 25.2072 23.4181 25.83 23.8363 26.8571C25.2816 30.4131 27.0535 33.7964 29.2739 36.9342C29.8656 37.7698 30.4696 38.603 31.3297 39.193C32.2791 39.8445 33.0026 39.6293 33.4502 38.5694C33.7367 37.8959 33.8603 37.1757 33.9225 36.4538C34.1352 33.9814 34.1606 31.5098 33.7923 29.0472C33.5632 27.5061 32.6965 26.5109 31.1603 26.2195C30.3779 26.0714 30.4925 25.7817 30.873 25.3348C31.5335 24.5623 32.1522 24.0843 33.3889 24.0843L42.6476 24.0827C44.1068 24.3691 44.4342 25.0238 44.6322 26.4937L44.6404 36.7828C44.6232 37.3516 44.926 39.0375 45.9474 39.4099C46.7658 39.68 47.306 39.0236 47.7954 38.5056C50.0158 36.1494 51.5978 33.3684 53.0144 30.49C53.6397 29.2207 54.179 27.9071 54.7028 26.5911C55.0924 25.618 55.698 25.1392 56.7963 25.1556L65.7121 25.1662C65.9748 25.1662 66.2416 25.1687 66.5019 25.2137C68.0045 25.4707 68.4162 26.1172 67.9513 27.583C67.2196 29.886 65.7981 31.8044 64.4084 33.7277C62.9189 35.7868 61.3303 37.7739 59.8556 39.842C58.5003 41.7326 58.6075 42.6844 60.2901 44.3261Z" fill="white" fill-opacity="0.88"/>
</svg>
