<?xml version="1.0"?>
<svg xmlns="http://www.w3.org/2000/svg" xmlns:xlink="http://www.w3.org/1999/xlink" xmlns:svgjs="http://svgjs.com/svgjs" version="1.1" width="512" height="512" x="0" y="0" viewBox="0 0 612 612" style="enable-background:new 0 0 512 512" xml:space="preserve" class=""><g>
<g xmlns="http://www.w3.org/2000/svg">
	<g id="_x32__38_">
		<g>
			<path d="M306,0C136.992,0,0,136.992,0,306s136.992,306,306,306s306-137.012,306-306S475.008,0,306,0z M469.251,392.751     c-7.478,7.478-19.584,7.478-27.043,0L306,256.543L169.811,392.731c-7.478,7.479-19.584,7.479-27.043,0     c-7.478-7.478-7.478-19.584,0-27.042l146.44-146.44c4.59-4.59,10.863-6.005,16.812-4.973c5.929-1.052,12.221,0.383,16.811,4.973     l146.44,146.44C476.71,373.167,476.71,385.273,469.251,392.751z" fill="#8d0b23" data-original="#000000" style="" class=""/>
		</g>
	</g>
</g>
<g xmlns="http://www.w3.org/2000/svg">
</g>
<g xmlns="http://www.w3.org/2000/svg">
</g>
<g xmlns="http://www.w3.org/2000/svg">
</g>
<g xmlns="http://www.w3.org/2000/svg">
</g>
<g xmlns="http://www.w3.org/2000/svg">
</g>
<g xmlns="http://www.w3.org/2000/svg">
</g>
<g xmlns="http://www.w3.org/2000/svg">
</g>
<g xmlns="http://www.w3.org/2000/svg">
</g>
<g xmlns="http://www.w3.org/2000/svg">
</g>
<g xmlns="http://www.w3.org/2000/svg">
</g>
<g xmlns="http://www.w3.org/2000/svg">
</g>
<g xmlns="http://www.w3.org/2000/svg">
</g>
<g xmlns="http://www.w3.org/2000/svg">
</g>
<g xmlns="http://www.w3.org/2000/svg">
</g>
<g xmlns="http://www.w3.org/2000/svg">
</g>
</g></svg>
