<svg width="80" height="80" viewBox="0 0 80 80" fill="none" xmlns="http://www.w3.org/2000/svg">
<mask id="mask0" mask-type="alpha" maskUnits="userSpaceOnUse" x="0" y="0" width="80" height="80">
<rect width="80" height="80" fill="#8EA59B"/>
<path d="M47.0312 40C47.0312 43.8831 43.8831 47.0312 40 47.0312C36.1169 47.0312 32.9688 43.8831 32.9688 40C32.9688 36.1169 36.1169 32.9688 40 32.9688C43.8831 32.9688 47.0312 36.1169 47.0312 40Z" fill="black"/>
<path d="M51.875 18.75H28.125C22.9553 18.75 18.75 22.9553 18.75 28.125V51.875C18.75 57.0447 22.9553 61.25 28.125 61.25H51.875C57.0447 61.25 61.25 57.0447 61.25 51.875V28.125C61.25 22.9553 57.0447 18.75 51.875 18.75ZM40 51.7188C33.5382 51.7188 28.2812 46.4618 28.2812 40C28.2812 33.5382 33.5382 28.2812 40 28.2812C46.4618 28.2812 51.7188 33.5382 51.7188 40C51.7188 46.4618 46.4618 51.7188 40 51.7188ZM53.4375 28.9062C52.1429 28.9062 51.0938 27.8571 51.0938 26.5625C51.0938 25.2679 52.1429 24.2188 53.4375 24.2188C54.7321 24.2188 55.7812 25.2679 55.7812 26.5625C55.7812 27.8571 54.7321 28.9062 53.4375 28.9062Z" fill="black"/>
<path d="M58.9062 0H21.0938C9.46289 0 0 9.46289 0 21.0938V58.9062C0 70.5371 9.46289 80 21.0938 80H58.9062C70.5371 80 80 70.5371 80 58.9062V21.0938C80 9.46289 70.5371 0 58.9062 0ZM65.9375 51.875C65.9375 59.6289 59.6289 65.9375 51.875 65.9375H28.125C20.3711 65.9375 14.0625 59.6289 14.0625 51.875V28.125C14.0625 20.3711 20.3711 14.0625 28.125 14.0625H51.875C59.6289 14.0625 65.9375 20.3711 65.9375 28.125V51.875Z" fill="black"/>
</mask>
<g mask="url(#mask0)">
</g>
<path d="M47.0312 40C47.0312 43.8831 43.8831 47.0312 40 47.0312C36.1169 47.0312 32.9688 43.8831 32.9688 40C32.9688 36.1169 36.1169 32.9688 40 32.9688C43.8831 32.9688 47.0312 36.1169 47.0312 40Z" fill="white" fill-opacity="0.88"/>
<path d="M51.875 18.75H28.125C22.9553 18.75 18.75 22.9553 18.75 28.125V51.875C18.75 57.0447 22.9553 61.25 28.125 61.25H51.875C57.0447 61.25 61.25 57.0447 61.25 51.875V28.125C61.25 22.9553 57.0447 18.75 51.875 18.75ZM40 51.7188C33.5382 51.7188 28.2812 46.4618 28.2812 40C28.2812 33.5382 33.5382 28.2812 40 28.2812C46.4618 28.2812 51.7188 33.5382 51.7188 40C51.7188 46.4618 46.4618 51.7188 40 51.7188ZM53.4375 28.9062C52.1429 28.9062 51.0938 27.8571 51.0938 26.5625C51.0938 25.2679 52.1429 24.2188 53.4375 24.2188C54.7321 24.2188 55.7812 25.2679 55.7812 26.5625C55.7812 27.8571 54.7321 28.9062 53.4375 28.9062Z" fill="white" fill-opacity="0.88"/>
<path d="M58.9062 0H21.0938C9.46289 0 0 9.46289 0 21.0938V58.9062C0 70.5371 9.46289 80 21.0938 80H58.9062C70.5371 80 80 70.5371 80 58.9062V21.0938C80 9.46289 70.5371 0 58.9062 0ZM65.9375 51.875C65.9375 59.6289 59.6289 65.9375 51.875 65.9375H28.125C20.3711 65.9375 14.0625 59.6289 14.0625 51.875V28.125C14.0625 20.3711 20.3711 14.0625 28.125 14.0625H51.875C59.6289 14.0625 65.9375 20.3711 65.9375 28.125V51.875Z" fill="white" fill-opacity="0.88"/>
</svg>
