<svg width="80" height="80" viewBox="0 0 80 80" fill="none" xmlns="http://www.w3.org/2000/svg">
<mask id="mask0" mask-type="alpha" maskUnits="userSpaceOnUse" x="0" y="0" width="80" height="80">
<path d="M40 80C62.0967 80 80 62.0967 80 40C80 17.9033 62.0967 0 40 0C17.9033 0 0 17.9033 0 40C0 62.0967 17.9033 80 40 80ZM18.3033 39.1333L56.87 24.2633C58.66 23.6167 60.2233 24.7 59.6433 27.4067L59.6467 27.4033L53.08 58.34C52.5933 60.5333 51.29 61.0667 49.4667 60.0333L39.4667 52.6633L34.6433 57.31C34.11 57.8433 33.66 58.2933 32.6267 58.2933L33.3367 48.1167L51.87 31.3733C52.6767 30.6633 51.69 30.2633 50.6267 30.97L27.7233 45.39L17.85 42.31C15.7067 41.63 15.66 40.1667 18.3033 39.1333Z" fill="black"/>
</mask>
<g mask="url(#mask0)">
</g>
<path d="M40 80C62.0967 80 80 62.0967 80 40C80 17.9033 62.0967 0 40 0C17.9033 0 0 17.9033 0 40C0 62.0967 17.9033 80 40 80ZM18.3033 39.1333L56.87 24.2633C58.66 23.6167 60.2233 24.7 59.6433 27.4067L59.6467 27.4033L53.08 58.34C52.5933 60.5333 51.29 61.0667 49.4667 60.0333L39.4667 52.6633L34.6433 57.31C34.11 57.8433 33.66 58.2933 32.6267 58.2933L33.3367 48.1167L51.87 31.3733C52.6767 30.6633 51.69 30.2633 50.6267 30.97L27.7233 45.39L17.85 42.31C15.7067 41.63 15.66 40.1667 18.3033 39.1333Z" fill="white" fill-opacity="0.88"/>
</svg>
