<svg width="477" height="164" viewBox="0 0 477 164" fill="none" xmlns="http://www.w3.org/2000/svg">
<g filter="url(#filter0_d)">
<rect x="26" y="26" width="422.295" height="112" stroke="#213369" stroke-width="4" shape-rendering="crispEdges"/>
</g>
<path d="M164.993 88.3945H143.512V111H136.762V59.8125H168.473V65.3672H143.512V82.875H164.993V88.3945ZM173.044 91.6289C173.044 87.9023 173.77 84.5508 175.223 81.5742C176.7 78.5977 178.739 76.3008 181.34 74.6836C183.965 73.0664 186.954 72.2578 190.305 72.2578C195.485 72.2578 199.669 74.0508 202.856 77.6367C206.067 81.2227 207.673 85.9922 207.673 91.9453V92.4023C207.673 96.1055 206.958 99.4336 205.528 102.387C204.122 105.316 202.094 107.602 199.446 109.242C196.821 110.883 193.798 111.703 190.376 111.703C185.219 111.703 181.036 109.91 177.825 106.324C174.637 102.738 173.044 97.9922 173.044 92.0859V91.6289ZM179.583 92.4023C179.583 96.6211 180.555 100.008 182.501 102.562C184.469 105.117 187.094 106.395 190.376 106.395C193.68 106.395 196.305 105.105 198.251 102.527C200.196 99.9258 201.169 96.293 201.169 91.6289C201.169 87.457 200.173 84.082 198.18 81.5039C196.212 78.9023 193.587 77.6016 190.305 77.6016C187.094 77.6016 184.505 78.8789 182.536 81.4336C180.567 83.9883 179.583 87.6445 179.583 92.4023ZM222.895 111H216.391V57H222.895V111ZM240.403 111H233.899V57H240.403V111ZM249.122 91.6289C249.122 87.9023 249.848 84.5508 251.301 81.5742C252.778 78.5977 254.817 76.3008 257.419 74.6836C260.044 73.0664 263.032 72.2578 266.383 72.2578C271.563 72.2578 275.747 74.0508 278.934 77.6367C282.145 81.2227 283.751 85.9922 283.751 91.9453V92.4023C283.751 96.1055 283.036 99.4336 281.606 102.387C280.2 105.316 278.173 107.602 275.524 109.242C272.899 110.883 269.876 111.703 266.454 111.703C261.298 111.703 257.114 109.91 253.903 106.324C250.715 102.738 249.122 97.9922 249.122 92.0859V91.6289ZM255.661 92.4023C255.661 96.6211 256.633 100.008 258.579 102.562C260.548 105.117 263.173 106.395 266.454 106.395C269.758 106.395 272.383 105.105 274.329 102.527C276.274 99.9258 277.247 96.293 277.247 91.6289C277.247 87.457 276.251 84.082 274.258 81.5039C272.29 78.9023 269.665 77.6016 266.383 77.6016C263.173 77.6016 260.583 78.8789 258.614 81.4336C256.645 83.9883 255.661 87.6445 255.661 92.4023ZM325.587 102.035L332.899 72.9609H339.403L328.329 111H323.055L313.809 82.1719L304.809 111H299.536L288.497 72.9609H294.965L302.454 101.438L311.313 72.9609H316.551L325.587 102.035Z" fill="white"/>
<defs>
<filter id="filter0_d" x="0" y="0" width="474.295" height="164" filterUnits="userSpaceOnUse" color-interpolation-filters="sRGB">
<feFlood flood-opacity="0" result="BackgroundImageFix"/>
<feColorMatrix in="SourceAlpha" type="matrix" values="0 0 0 0 0 0 0 0 0 0 0 0 0 0 0 0 0 0 127 0" result="hardAlpha"/>
<feMorphology radius="4" operator="dilate" in="SourceAlpha" result="effect1_dropShadow"/>
<feOffset/>
<feGaussianBlur stdDeviation="10"/>
<feComposite in2="hardAlpha" operator="out"/>
<feColorMatrix type="matrix" values="0 0 0 0 0.129412 0 0 0 0 0.2 0 0 0 0 0.411765 0 0 0 0.5 0"/>
<feBlend mode="normal" in2="BackgroundImageFix" result="effect1_dropShadow"/>
<feBlend mode="normal" in="SourceGraphic" in2="effect1_dropShadow" result="shape"/>
</filter>
</defs>
</svg>
