<svg width="550" height="136" viewBox="0 0 550 136" fill="none" xmlns="http://www.w3.org/2000/svg">
<g filter="url(#filter0_d)">
<rect x="1" width="542" height="125" rx="30" fill="#A20B0B"/>
</g>
<path d="M154.2 79.12H155.32C157.507 79.12 159.267 78.2933 160.6 76.64C161.987 74.9333 163.053 71.84 163.8 67.36C164.547 62.88 164.92 56.5333 164.92 48.32V36.08H202.68V79.12H210.28V100.08H199.08V88H165.4V100.08H154.2V79.12ZM190.2 79.2V44.88H176.12V51.28C176.12 64.7733 174.387 74.08 170.92 79.2H190.2ZM228.143 88.8C224.516 88.8 221.796 88.48 219.983 87.84C218.223 87.1467 216.969 85.9467 216.223 84.24C215.529 82.48 215.183 79.8667 215.183 76.4C215.183 73.3067 215.556 70.88 216.303 69.12C217.103 67.36 218.356 66.1067 220.063 65.36C221.823 64.56 224.223 64.16 227.263 64.16H240.383V61.52C240.383 59.8667 240.143 58.64 239.663 57.84C239.236 57.04 238.409 56.48 237.183 56.16C236.009 55.84 234.223 55.68 231.823 55.68C228.516 55.68 223.983 56 218.223 56.64V49.28C222.436 48.7467 227.369 48.48 233.023 48.48C237.983 48.48 241.796 48.8533 244.463 49.6C247.183 50.3467 249.129 51.6267 250.303 53.44C251.476 55.2533 252.062 57.8933 252.062 61.36V88H240.623V84.48C239.716 86.0267 238.489 87.12 236.943 87.76C235.396 88.4533 232.463 88.8 228.143 88.8ZM232.703 81.52C235.049 81.52 236.729 81.44 237.743 81.28C238.489 81.1733 238.996 81.0133 239.263 80.8C239.583 80.5867 239.849 80.24 240.063 79.76C240.276 79.3867 240.383 78.8267 240.383 78.08V70.56H232.383C230.569 70.56 229.289 70.6933 228.543 70.96C227.796 71.1733 227.289 71.6533 227.023 72.4C226.756 73.0933 226.623 74.3467 226.623 76.16C226.623 77.92 226.756 79.1467 227.023 79.84C227.289 80.5333 227.796 80.9867 228.543 81.2C229.343 81.4133 230.729 81.52 232.703 81.52ZM264.099 88.64C262.925 88.64 261.539 88.48 259.939 88.16V79.52C260.579 79.6267 261.245 79.68 261.939 79.68C263.912 79.68 265.512 79.0667 266.739 77.84C267.965 76.6133 268.899 74.2133 269.539 70.64C270.232 67.0667 270.579 61.8933 270.579 55.12V49.28H300.899V88H289.219V56.72H280.339V57.68C280.339 65.9467 279.619 72.3467 278.179 76.88C276.739 81.4133 274.845 84.5067 272.499 86.16C270.152 87.8133 267.352 88.64 264.099 88.64ZM330.607 88.8C316.9 88.8 310.047 84.6133 310.047 76.24V62.32C310.047 57.4667 311.594 53.9467 314.687 51.76C317.834 49.5733 322.66 48.48 329.167 48.48C335.3 48.48 339.78 49.5467 342.607 51.68C345.487 53.76 346.927 57.3067 346.927 62.32V71.76H321.807V75.28C321.807 77.52 322.607 79.12 324.207 80.08C325.807 81.04 328.687 81.52 332.847 81.52C336.687 81.52 341.007 80.96 345.807 79.84V87.28C341.06 88.2933 335.994 88.8 330.607 88.8ZM335.807 65.12V59.52C335.807 58.24 335.274 57.28 334.207 56.64C333.194 56 331.46 55.68 329.007 55.68C326.18 55.68 324.287 56 323.327 56.64C322.314 57.3333 321.807 58.2933 321.807 59.52V65.12H335.807ZM375.294 88.8C361.588 88.8 354.734 84.6133 354.734 76.24V62.32C354.734 57.4667 356.281 53.9467 359.374 51.76C362.521 49.5733 367.348 48.48 373.854 48.48C379.988 48.48 384.468 49.5467 387.294 51.68C390.174 53.76 391.614 57.3067 391.614 62.32V71.76H366.494V75.28C366.494 77.52 367.294 79.12 368.894 80.08C370.494 81.04 373.374 81.52 377.534 81.52C381.374 81.52 385.694 80.96 390.494 79.84V87.28C385.748 88.2933 380.681 88.8 375.294 88.8ZM380.494 65.12V59.52C380.494 58.24 379.961 57.28 378.894 56.64C377.881 56 376.148 55.68 373.694 55.68C370.868 55.68 368.974 56 368.014 56.64C367.001 57.3333 366.494 58.2933 366.494 59.52V65.12H380.494Z" fill="black"/>
<defs>
<filter id="filter0_d" x="0" y="0" width="550" height="136" filterUnits="userSpaceOnUse" color-interpolation-filters="sRGB">
<feFlood flood-opacity="0" result="BackgroundImageFix"/>
<feColorMatrix in="SourceAlpha" type="matrix" values="0 0 0 0 0 0 0 0 0 0 0 0 0 0 0 0 0 0 127 0" result="hardAlpha"/>
<feOffset dx="3" dy="7"/>
<feGaussianBlur stdDeviation="2"/>
<feComposite in2="hardAlpha" operator="out"/>
<feColorMatrix type="matrix" values="0 0 0 0 0 0 0 0 0 0 0 0 0 0 0 0 0 0 0.25 0"/>
<feBlend mode="normal" in2="BackgroundImageFix" result="effect1_dropShadow"/>
<feBlend mode="normal" in="SourceGraphic" in2="effect1_dropShadow" result="shape"/>
</filter>
</defs>
</svg>
